<svg width="102" height="50" viewBox="0 0 102 50" fill="none" xmlns="http://www.w3.org/2000/svg">
<path d="M50 25C50 38.8071 38.8071 50 25 50C11.1929 50 0 38.8071 0 25C0 11.1929 11.1929 0 25 0C38.8071 0 50 11.1929 50 25Z" fill="#00026C"/>
<path d="M39 25C39 32.732 32.732 39 25 39C17.268 39 11 32.732 11 25C11 17.268 17.268 11 25 11C32.732 11 39 17.268 39 25Z" fill="#661EF5"/>
<path d="M38 20C38 23.866 34.866 27 31 27C27.134 27 24 23.866 24 20C24 16.134 27.134 13 31 13C34.866 13 38 16.134 38 20Z" fill="#00026C"/>
<path d="M62.71 32H58.525V31.535L59.86 30.485V21.26L58.525 20.33V19.865L61.09 18.905H61.66V30.875L63.01 31.4L62.71 32Z" fill="black"/>
<path d="M73.1971 32H70.3471V30.44L68.4421 32.03C68.2321 32.11 67.9571 32.15 67.6171 32.15C66.9371 32.15 66.3971 31.945 65.9971 31.535C65.5971 31.115 65.3971 30.55 65.3971 29.84V26.255L64.0621 25.475V25.01L66.6271 23.75H67.1971V29.09C67.1971 29.64 67.2821 30.025 67.4521 30.245C67.6221 30.465 67.9271 30.575 68.3671 30.575C68.6771 30.575 68.9821 30.52 69.2821 30.41C69.5821 30.29 69.9371 30.06 70.3471 29.72V26.255L69.0121 25.475V25.01L71.5771 23.75H72.1471V30.875L73.4971 31.4L73.1971 32Z" fill="black"/>
<path d="M84.1354 32.015H81.2854V26.96C81.2854 26.41 81.2004 26.025 81.0304 25.805C80.8604 25.585 80.5554 25.475 80.1154 25.475C79.7854 25.475 79.4554 25.535 79.1254 25.655C78.8054 25.775 78.4254 26.005 77.9854 26.345V30.89L79.3354 31.415L79.0354 32.015H74.8504V31.55L76.1854 30.5V26.255L74.8504 25.475V25.01L77.4154 23.75L77.9104 25.7L80.0404 24.005C80.2504 23.925 80.5254 23.885 80.8654 23.885C81.5454 23.885 82.0854 24.095 82.4854 24.515C82.8854 24.925 83.0854 25.485 83.0854 26.195V30.875L84.4354 31.415L84.1354 32.015Z" fill="black"/>
<path d="M93.4466 32H90.5966V30.695L88.9016 32.03C88.7016 32.11 88.4516 32.15 88.1516 32.15C87.2916 32.15 86.6666 31.935 86.2766 31.505C85.8966 31.075 85.7066 30.56 85.7066 29.96C85.7066 29.6 85.8366 29.245 86.0966 28.895C86.3566 28.545 86.7266 28.215 87.2066 27.905H90.5966V26.945C90.5966 26.295 90.4216 25.835 90.0716 25.565C89.7316 25.295 89.2616 25.16 88.6616 25.16C88.0416 25.16 87.2816 25.535 86.3816 26.285L85.9316 25.715L88.0916 24.005C88.4916 23.925 88.9716 23.885 89.5316 23.885C90.4416 23.885 91.1466 24.11 91.6466 24.56C92.1466 25 92.3966 25.645 92.3966 26.495V30.875L93.7466 31.4L93.4466 32ZM88.6316 30.875C89.2416 30.875 89.8966 30.595 90.5966 30.035V28.52H87.9416C87.8116 28.68 87.7166 28.84 87.6566 29C87.6066 29.16 87.5816 29.335 87.5816 29.525C87.5816 29.895 87.6766 30.215 87.8666 30.485C88.0566 30.745 88.3116 30.875 88.6316 30.875Z" fill="black"/>
<path d="M100.363 23.9C100.693 23.9 100.983 23.99 101.233 24.17C101.483 24.35 101.678 24.6 101.818 24.92L100.828 26.165H100.258C100.218 25.915 100.143 25.74 100.033 25.64C99.9331 25.53 99.793 25.475 99.613 25.475C99.393 25.475 99.1581 25.535 98.9081 25.655C98.6681 25.765 98.393 25.98 98.083 26.3V30.77L100.183 31.415L99.883 32.015H94.948V31.55L96.2831 30.5V26.255L94.948 25.475V25.01L97.513 23.75L97.9781 25.595L99.538 24.005C99.748 23.925 100.023 23.885 100.363 23.885V23.9Z" fill="black"/>
</svg>
